<svg width="378" height="186" viewBox="0 0 378 186" fill="none" xmlns="http://www.w3.org/2000/svg">
<path d="M13.5867 67.9006H40.6792V54.9955H13.5867V41.6924H43.4763V28.9472H0.000549316V95.6223H43.6361V82.8765H13.5867V67.9006Z" fill="#E08BA1"/>
<path d="M95.1811 28.9472L78.9575 79.3719L62.8938 28.9472H47.949L70.726 95.6223H87.269L110.046 28.9472H95.1811Z" fill="#E08BA1"/>
<path d="M128.185 67.5815L136.337 44.8786L144.489 67.5815H128.185ZM144.089 28.9466H128.665L103.89 95.6217H118.196L123.63 80.407H149.044L154.559 95.6217H168.864L144.089 28.9466Z" fill="#E08BA1"/>
<path d="M9.03456 146.76C9.03456 144.662 9.52433 143.053 10.5039 141.932C11.4834 140.811 12.7713 140.25 14.3674 140.25H21.5515V131.245H15.9461C10.9397 131.245 7.02991 132.656 4.21809 135.477C1.40626 138.298 0 142.547 0 148.225V159.291H23.9464V150.286H9.03456V146.76Z" fill="#E08BA1"/>
<path d="M32.6524 159.291H41.6862V113.886H32.6524V159.291Z" fill="#E08BA1"/>
<path d="M66.9926 150.285H64.489C63.328 150.285 62.2483 150.132 61.2512 149.824C60.2527 149.517 59.4007 149.074 58.693 148.495C57.9853 147.917 57.4234 147.194 57.0058 146.325C56.5882 145.457 56.3801 144.445 56.3801 143.288C56.3801 142.239 56.598 141.29 57.0331 140.44C57.4682 139.59 58.0582 138.866 58.8016 138.27C59.545 137.673 60.4167 137.203 61.4138 136.859C62.4122 136.516 63.4366 136.345 64.489 136.345H66.9926V150.285ZM167.449 136.263C166.506 134.075 165.272 132.221 163.748 130.703C162.37 129.292 160.719 128.207 158.796 127.448C156.873 126.688 154.751 126.308 152.428 126.308C150.07 126.308 147.884 126.625 145.87 127.258C143.856 127.891 141.743 128.84 139.53 130.106L143.34 138.026C145.118 136.868 146.578 136.127 147.721 135.802C148.863 135.476 150.125 135.314 151.503 135.314C154.043 135.314 156.02 135.946 157.436 137.212C158.306 137.935 158.932 138.857 159.313 139.979C159.694 141.1 159.884 142.185 159.884 143.234C159.884 144.355 159.802 145.611 159.639 147.004C159.476 148.396 159.304 149.49 159.122 150.285H138.878H136.374H129.247H126.742H119.614H117.11H109.983H107.479H100.351H97.8463H90.719H88.2147H81.0335H78.5832H75.9718L76.0264 127.339H66.72C63.9271 127.339 61.3507 127.701 58.9922 128.424C56.6337 129.147 54.5926 130.196 52.8697 131.57C51.1467 132.945 49.7951 134.617 48.8148 136.588C47.836 138.559 47.3455 140.793 47.3455 143.288C47.3455 146.108 47.8535 148.541 48.8695 150.584C49.8855 152.627 51.2735 154.291 53.0329 155.574C54.793 156.858 56.8425 157.799 59.1828 158.395C61.5224 158.992 64.0357 159.291 66.72 159.291H66.7747C66.7382 159.616 66.5841 160.013 66.3122 160.484C66.0403 160.954 65.6676 161.315 65.1967 161.569C64.7252 161.822 64.117 161.993 63.3729 162.084C62.6294 162.174 61.7494 162.22 60.7341 162.22C59.5002 162.22 58.267 162.111 57.0331 161.894C55.7999 161.677 54.1309 161.243 52.0261 160.592L52.6791 169.76L55.4005 170.519C56.0536 170.664 56.6884 170.79 57.305 170.899C57.9223 171.008 58.548 171.089 59.1828 171.143C59.8176 171.198 60.5162 171.225 61.2778 171.225C63.7814 171.225 65.931 170.917 67.7269 170.302C69.5227 169.688 71.0012 168.82 72.1622 167.699C73.3239 166.578 74.1941 165.249 74.775 163.711C75.3552 162.174 75.6999 160.701 75.8092 159.291H78.5832H81.0335H88.2147H90.719H97.8463H100.351H107.479H109.983H117.11H119.614H126.742H129.247H136.374H138.878H166.088C166.415 158.17 166.741 157.057 167.068 155.954C167.394 154.851 167.685 153.64 167.939 152.32C168.193 151 168.41 149.625 168.592 148.197C168.773 146.769 168.864 145.313 168.864 143.83C168.864 140.974 168.392 138.451 167.449 136.263Z" fill="#E08BA1"/>
<path d="M225.892 0.00012207C206.917 0.00012207 191.393 15.4746 191.393 34.3874V151.613C191.393 170.526 206.917 186 225.892 186H343.5C362.475 186 378 170.526 378 151.613V34.3874C378 15.4746 362.475 0.00012207 343.5 0.00012207H225.892Z" fill="url(#paint0_linear_170_140)"/>
<path d="M283.414 146.591C277.416 146.591 272.553 151.438 272.553 157.416C272.553 163.394 277.416 168.241 283.414 168.241C289.412 168.241 294.275 163.394 294.275 157.416C294.275 151.438 289.412 146.591 283.414 146.591Z" fill="white"/>
<path d="M335.151 136.681C335.149 137.963 336.19 139.004 337.477 139.007C338.763 139.009 339.807 137.971 339.809 136.689C339.811 135.406 338.771 134.365 337.484 134.363C336.198 134.361 335.153 135.399 335.151 136.681Z" fill="white"/>
<path d="M261.232 55.8151C268.625 48.447 278.064 44.7601 289.547 44.7601C289.547 44.7601 294.496 44.0827 301.281 46.2708C304.357 47.1563 307.104 48.4267 309.511 50.0924C309.619 50.1678 309.725 50.2447 309.832 50.3208C314.746 53.854 317.209 58.5892 317.209 64.5291C317.209 78.2297 302.159 85.0782 272.062 85.0782H259.014C255.707 85.0782 252.575 84.993 249.619 84.8184C249.966 72.8534 253.835 63.1882 261.232 55.8151ZM339.822 143.706V143.683L318.434 143.677C317.147 143.675 316.106 142.634 316.108 141.351C316.111 140.069 317.155 139.031 318.442 139.033V139.012H329.453V139.005C330.715 138.98 331.731 137.954 331.734 136.689C331.736 135.421 330.719 134.39 329.453 134.364V134.342H286.941C278.366 133.401 271.01 130.858 264.885 126.697C256.967 121.325 252.314 114.126 250.924 105.108C254.402 105.282 257.925 105.413 261.493 105.498C265.057 105.587 268.058 105.628 270.496 105.628C296.764 105.628 315.945 102.246 328.04 95.4837C330.497 94.1085 332.7 92.5916 334.659 90.9371C342.334 84.4538 346.177 75.8265 346.177 65.0494C346.177 51.6981 340.998 41.1633 330.649 33.4453C320.296 25.7307 306.77 21.87 290.069 21.87C276.323 21.87 264.103 24.8612 253.403 30.8437C242.703 36.8263 234.308 45.0653 228.219 55.5553C222.128 66.0495 219.086 78.1445 219.086 91.8415C219.086 105.367 222.042 117.203 227.959 127.348C233.871 137.493 242.091 145.426 252.62 151.149C257.001 153.531 261.661 155.041 266.601 156.005C267.32 147.375 274.57 140.594 283.414 140.594C292.735 140.594 300.291 148.125 300.291 157.415C300.291 157.51 300.286 157.602 300.284 157.695H300.291H308.207H332.444V157.688C333.706 157.662 334.723 156.637 334.725 155.372C334.727 154.104 333.709 153.073 332.444 153.047V153.025H313.33V153.018H313.449C313.409 153.018 313.369 153.017 313.33 153.015C312.098 152.952 311.121 151.936 311.123 150.693C311.125 149.453 312.102 148.441 313.33 148.379C313.372 148.377 313.414 148.375 313.456 148.375V148.354H339.822V148.346C341.084 148.321 342.1 147.295 342.103 146.03C342.105 144.762 341.088 143.731 339.822 143.706Z" fill="white"/>
<defs>
<linearGradient id="paint0_linear_170_140" x1="191.393" y1="93.0001" x2="378" y2="93.0001" gradientUnits="userSpaceOnUse">
<stop stop-color="#E08BA1"/>
<stop offset="1" stop-color="#A45BA5"/>
</linearGradient>
</defs>
</svg>
